<svg xmlns="http://www.w3.org/2000/svg" viewBox="0 0 200 200" width="100%" height="100%">
  <defs>
    <linearGradient id="clayGrad" x1="0%" y1="0%" x2="100%" y2="100%">
      <stop offset="0%" stop-color="#EA580C"/>
      <stop offset="50%" stop-color="#C2410C"/>
      <stop offset="100%" stop-color="#78350F"/>
    </linearGradient>
    <linearGradient id="goldGrad" x1="0%" y1="0%" x2="100%" y2="100%">
      <stop offset="0%" stop-color="#FDE68A"/>
      <stop offset="100%" stop-color="#D97706"/>
    </linearGradient>
  </defs>
  <!-- Background Circle with Precolumbian motif ring -->
  <circle cx="100" cy="100" r="92" fill="#1E293B" stroke="url(#goldGrad)" stroke-width="4"/>
  <circle cx="100" cy="100" r="82" fill="none" stroke="#EA580C" stroke-width="2" stroke-dasharray="6,4"/>
  
  <!-- Precolumbian / Solar Vessel Symbol -->
  <path d="M 60 70 Q 100 50 140 70 L 130 130 Q 100 155 70 130 Z" fill="url(#clayGrad)" stroke="#FDE68A" stroke-width="3"/>
  <ellipse cx="100" cy="70" rx="40" ry="12" fill="#78350F" stroke="#FDE68A" stroke-width="2"/>
  
  <!-- Geometric Chorotega Patterns -->
  <path d="M 75 90 L 85 105 L 95 90 L 105 105 L 115 90 L 125 105" fill="none" stroke="#FEF3C7" stroke-width="3" stroke-linecap="round"/>
  <circle cx="100" cy="120" r="8" fill="#F59E0B"/>
  
  <!-- WiFi / Offline Signal Waves -->
  <path d="M 85 40 Q 100 30 115 40" fill="none" stroke="#38BDF8" stroke-width="3" stroke-linecap="round"/>
  <path d="M 75 30 Q 100 16 125 30" fill="none" stroke="#38BDF8" stroke-width="3" stroke-linecap="round"/>
  <circle cx="100" cy="48" r="3" fill="#38BDF8"/>
</svg>
